<svg height="480pt" viewBox="0 0 480 480" width="480pt" xmlns="http://www.w3.org/2000/svg"><path d="m448 0h-208v16h208c8.835938 0 16 7.164062 16 16v416c0 8.835938-7.164062 16-16 16h-160v16h160c17.671875 0 32-14.328125 32-32v-416c0-17.671875-14.328125-32-32-32zm0 0"/><path d="m336 48c-20.664062.007812-40.328125 8.882812-54 24.375l12 10.59375c19.503906-22.113281 52.8125-25.3125 76.171875-7.320312 23.355469 17.996093 28.761719 51.019531 12.359375 75.519531s-48.996094 32.085937-74.53125 17.34375l-8 13.847656c26.214844 15.128906 59.089844 12.25 82.273438-7.207031 23.183593-19.457032 31.726562-51.332032 21.375-79.773438-10.351563-28.441406-37.382813-47.375-67.648438-47.378906zm0 0"/><path d="m336 160c22.089844 0 40-17.910156 40-40s-17.910156-40-40-40-40 17.910156-40 40c.027344 22.082031 17.917969 39.972656 40 40zm0-64c13.253906 0 24 10.746094 24 24s-10.746094 24-24 24-24-10.746094-24-24 10.746094-24 24-24zm0 0"/><path d="m336 216c-51.96875-.179688-97.175781 35.554688-109 86.160156l15.566406 3.679688c9.46875-39.882813 43.214844-69.351563 84.007813-73.367188 40.792969-4.011718 79.632812 18.320313 96.691406 55.589844 17.058594 37.273438 8.566406 81.265625-21.136719 109.511719-29.699218 28.25-74.0625 34.523437-110.433594 15.617187l-7.390624 14.183594c41.234374 21.4375 91.425781 15.175781 126.136718-15.730469 34.710938-30.90625 46.726563-80.035156 30.199219-123.472656s-58.164063-72.15625-104.640625-72.171875zm0 0"/><path d="m336 392c-15.742188.011719-30.9375-5.792969-42.664062-16.296875l-10.671876 11.921875c26.894532 24.046875 66.554688 27.117188 96.828126 7.5 30.277343-19.617188 43.675781-57.074219 32.714843-91.441406-10.960937-34.371094-43.570312-57.15625-79.613281-55.625s-66.601562 26.996094-74.609375 62.171875l15.601563 3.539062c7.445312-32.652343 38.804687-54.042969 71.921874-49.054687 33.117188 4.984375 56.789063 34.65625 54.296876 68.050781-2.496094 33.398437-30.316407 59.226563-63.804688 59.234375zm0 0"/><path d="m432 32h16v16h-16zm0 0"/><path d="m224 432h16v16h-16zm0 0"/><path d="m432 432h16v16h-16zm0 0"/><path d="m24 480h224c13.253906 0 24-10.746094 24-24v-112c0-13.253906-10.746094-24-24-24h-50.585938l-13.980468-34.976562c-1.21875-3.035157-4.160156-5.027344-7.433594-5.023438h-80c-3.273438-.003906-6.214844 1.988281-7.433594 5.023438l-13.980468 34.976562h-50.585938c-13.253906 0-24 10.746094-24 24v112c0 13.253906 10.746094 24 24 24zm-8-136c0-4.417969 3.582031-8 8-8h56c3.273438.003906 6.214844-1.988281 7.433594-5.023438l13.980468-34.976562h69.171876l13.980468 34.976562c1.21875 3.035157 4.160156 5.027344 7.433594 5.023438h56c4.417969 0 8 3.582031 8 8v112c0 4.417969-3.582031 8-8 8h-224c-4.417969 0-8-3.582031-8-8zm0 0"/><path d="m136 448c30.929688 0 56-25.070312 56-56s-25.070312-56-56-56-56 25.070312-56 56c.035156 30.914062 25.085938 55.964844 56 56zm0-96c22.089844 0 40 17.910156 40 40s-17.910156 40-40 40-40-17.910156-40-40c.027344-22.082031 17.917969-39.972656 40-40zm0 0"/><path d="m40 352h16v16h-16zm0 0"/><path d="m208 352h32v16h-32zm0 0"/><path d="m8 192h24.640625c3.566406 24.527344 22.832031 43.792969 47.359375 47.359375v.640625c0 13.253906 10.746094 24 24 24s24-10.746094 24-24v-112c0-13.253906-10.746094-24-24-24s-24 10.746094-24 24v.640625c-12.164062 1.746094-23.410156 7.453125-32 16.238281v-.878906c0-53.019531 42.980469-96 96-96s96 42.980469 96 96v.878906c-8.589844-8.785156-19.835938-14.492187-32-16.238281v-.640625c0-13.253906-10.746094-24-24-24s-24 10.746094-24 24v112c0 13.253906 10.746094 24 24 24s24-10.746094 24-24v-.640625c24.527344-3.566406 43.792969-22.832031 47.359375-47.359375h24.640625c4.417969 0 8-3.582031 8-8v-40c0-79.527344-64.472656-144-144-144s-144 64.472656-144 144v40c0 4.417969 3.582031 8 8 8zm88 40v-104c0-4.417969 3.582031-8 8-8s8 3.582031 8 8v112c0 4.417969-3.582031 8-8 8s-8-3.582031-8-8zm96-96v104c0 4.417969-3.582031 8-8 8s-8-3.582031-8-8v-112c0-4.417969 3.582031-8 8-8s8 3.582031 8 8zm16 87.199219v-78.398438c18.644531 3.785157 32.039062 20.175781 32.039062 39.199219s-13.394531 35.414062-32.039062 39.199219zm-128-78.398438v78.398438c-18.644531-3.785157-32.039062-20.175781-32.039062-39.199219s13.394531-35.414062 32.039062-39.199219zm-64-.800781c0-70.691406 57.308594-128 128-128s128 57.308594 128 128v32h-16v-32c0-61.855469-50.144531-112-112-112s-112 50.144531-112 112v32h-16zm0 0"/></svg>