<svg width="76" height="76" viewBox="0 0 76 76" fill="none" xmlns="http://www.w3.org/2000/svg">
<circle cx="38" cy="38" r="38" fill="#E4E4E4"/>
<path d="M55.3333 18H38V19.3333H55.3333C56.0697 19.3333 56.6667 19.9303 56.6667 20.6667V55.3333C56.6667 56.0697 56.0697 56.6667 55.3333 56.6667H42V58H55.3333C56.806 58 58 56.806 58 55.3333V20.6667C58 19.194 56.806 18 55.3333 18Z" fill="black"/>
<path d="M46 22C44.278 22.0007 42.6393 22.7402 41.5 24.0313L42.5 24.9141C44.1253 23.0713 46.901 22.8047 48.8477 24.304C50.794 25.8037 51.2445 28.5557 49.8776 30.5973C48.5107 32.639 45.7946 33.2712 43.6667 32.0426L43 33.1966C45.1846 34.4574 47.9242 34.2174 49.8561 32.596C51.7881 30.9746 52.5 28.3184 51.6374 25.9482C50.7747 23.5781 48.5221 22.0003 46 22Z" fill="black"/>
<path d="M46 31.3333C47.8408 31.3333 49.3333 29.8408 49.3333 28C49.3333 26.1592 47.8408 24.6667 46 24.6667C44.1592 24.6667 42.6667 26.1592 42.6667 28C42.669 29.8402 44.1598 31.331 46 31.3333ZM46 26C47.1045 26 48 26.8955 48 28C48 29.1045 47.1045 30 46 30C44.8955 30 44 29.1045 44 28C44 26.8955 44.8955 26 46 26Z" fill="black"/>
<path d="M46 36C41.6693 35.985 37.902 38.9629 36.9167 43.18L38.2139 43.4866C39.0029 40.1631 41.8151 37.7074 45.2145 37.3727C48.6139 37.0384 51.8506 38.8994 53.2721 42.0052C54.6937 45.1113 53.986 48.7773 51.5107 51.1312C49.0358 53.4853 45.3389 54.0081 42.3079 52.4326L41.6921 53.6146C45.1283 55.401 49.3109 54.8792 52.2034 52.3037C55.096 49.7282 56.0973 45.6341 54.72 42.0143C53.3428 38.3945 49.873 36.0013 46 36Z" fill="black"/>
<path d="M46 50.6667C44.6882 50.6677 43.4219 50.1839 42.4447 49.3086L41.5553 50.3021C43.7966 52.306 47.1016 52.5619 49.6243 50.9271C52.1475 49.2923 53.264 46.1709 52.3506 43.307C51.4372 40.4427 48.7197 38.544 45.7161 38.6716C42.7126 38.7992 40.166 40.9213 39.4987 43.8526L40.7988 44.1475C41.4193 41.4265 44.0326 39.6439 46.7923 40.0596C49.5521 40.475 51.5247 42.9476 51.3171 45.7305C51.109 48.5137 48.7907 50.666 46 50.6667Z" fill="black"/>
<path d="M54 20.6667H55.3333V22H54V20.6667Z" fill="black"/>
<path d="M36.6667 54H38V55.3333H36.6667V54Z" fill="black"/>
<path d="M54 54H55.3333V55.3333H54V54Z" fill="black"/>
<path d="M20 58H38.6667C39.7712 58 40.6667 57.1045 40.6667 56V46.6667C40.6667 45.5622 39.7712 44.6667 38.6667 44.6667H34.4512L33.2861 41.752C33.1846 41.499 32.9395 41.333 32.6667 41.3333H26C25.7272 41.333 25.4821 41.499 25.3805 41.752L24.2155 44.6667H20C18.8955 44.6667 18 45.5622 18 46.6667V56C18 57.1045 18.8955 58 20 58ZM19.3333 46.6667C19.3333 46.2985 19.6318 46 20 46H24.6667C24.9395 46.0003 25.1846 45.8343 25.2861 45.5814L26.4512 42.6667H32.2155L33.3805 45.5814C33.4821 45.8343 33.7272 46.0003 34 46H38.6667C39.0348 46 39.3333 46.2985 39.3333 46.6667V56C39.3333 56.3682 39.0348 56.6667 38.6667 56.6667H20C19.6318 56.6667 19.3333 56.3682 19.3333 56V46.6667Z" fill="black"/>
<path d="M29.3333 55.3333C31.9108 55.3333 34 53.2441 34 50.6667C34 48.0892 31.9108 46 29.3333 46C26.7559 46 24.6667 48.0892 24.6667 50.6667C24.6696 53.2428 26.7572 55.3304 29.3333 55.3333ZM29.3333 47.3333C31.1742 47.3333 32.6667 48.8258 32.6667 50.6667C32.6667 52.5075 31.1742 54 29.3333 54C27.4925 54 26 52.5075 26 50.6667C26.0023 48.8265 27.4932 47.3356 29.3333 47.3333Z" fill="black"/>
<path d="M21.3333 47.3333H22.6667V48.6667H21.3333V47.3333Z" fill="black"/>
<path d="M35.3333 47.3333H38V48.6667H35.3333V47.3333Z" fill="black"/>
<path d="M18.6667 34H20.7201C21.0173 36.0439 22.6227 37.6494 24.6667 37.9466V38C24.6667 39.1045 25.5622 40 26.6667 40C27.7712 40 28.6667 39.1045 28.6667 38V28.6667C28.6667 27.5622 27.7712 26.6667 26.6667 26.6667C25.5622 26.6667 24.6667 27.5622 24.6667 28.6667V28.7201C23.653 28.8656 22.7158 29.3411 22 30.0732V30C22 25.5817 25.5817 22 30 22C34.4183 22 38 25.5817 38 30V30.0732C37.2842 29.3411 36.347 28.8656 35.3333 28.7201V28.6667C35.3333 27.5622 34.4378 26.6667 33.3333 26.6667C32.2288 26.6667 31.3333 27.5622 31.3333 28.6667V38C31.3333 39.1045 32.2288 40 33.3333 40C34.4378 40 35.3333 39.1045 35.3333 38V37.9466C37.3773 37.6494 38.9827 36.0439 39.2799 34H41.3333C41.7015 34 42 33.7015 42 33.3333V30C42 23.3727 36.6273 18 30 18C23.3727 18 18 23.3727 18 30V33.3333C18 33.7015 18.2985 34 18.6667 34ZM26 37.3333V28.6667C26 28.2985 26.2985 28 26.6667 28C27.0348 28 27.3333 28.2985 27.3333 28.6667V38C27.3333 38.3682 27.0348 38.6667 26.6667 38.6667C26.2985 38.6667 26 38.3682 26 38V37.3333ZM34 29.3333V38C34 38.3682 33.7015 38.6667 33.3333 38.6667C32.9652 38.6667 32.6667 38.3682 32.6667 38V28.6667C32.6667 28.2985 32.9652 28 33.3333 28C33.7015 28 34 28.2985 34 28.6667V29.3333ZM35.3333 36.5999V30.0667C36.887 30.3822 38.0033 31.748 38.0033 33.3333C38.0033 34.9186 36.887 36.2845 35.3333 36.5999ZM24.6667 30.0667V36.5999C23.113 36.2845 21.9967 34.9186 21.9967 33.3333C21.9967 31.748 23.113 30.3822 24.6667 30.0667ZM19.3333 30C19.3333 24.109 24.109 19.3333 30 19.3333C35.891 19.3333 40.6667 24.109 40.6667 30V32.6667H39.3333V30C39.3333 24.8454 35.1546 20.6667 30 20.6667C24.8454 20.6667 20.6667 24.8454 20.6667 30V32.6667H19.3333V30Z" fill="black"/>
</svg>
