<svg width="79" height="96" viewBox="0 0 79 96" fill="none" xmlns="http://www.w3.org/2000/svg">
<path d="M73.6514 24.5715C73.564 23.5359 72.6916 22.7424 71.6521 22.7525H56.4572V16.9943C56.4572 7.60839 48.848 0 39.4629 0C30.077 0 22.4686 7.60839 22.4686 16.9943V22.7525H7.27367C6.23886 22.7564 5.37509 23.5421 5.27434 24.5715L0.0362506 84.7919C-0.201951 87.584 0.741483 90.3487 2.6385 92.4128C4.53474 94.4762 7.20963 95.65 10.0126 95.6477H68.9327C71.7357 95.65 74.4106 94.4762 76.3068 92.4128C78.2038 90.3487 79.148 87.584 78.9098 84.7919L73.6514 24.5715ZM26.4672 16.9943C26.4672 9.81703 32.2856 3.99866 39.4629 3.99866C46.6402 3.99866 52.4585 9.81703 52.4585 16.9943V22.7525H26.4672V16.9943ZM73.3515 89.7098C72.2207 90.9547 70.6142 91.66 68.9327 91.649H9.99229C8.31082 91.6498 6.70667 90.9446 5.56955 89.7059C4.43322 88.4665 3.86856 86.8069 4.01461 85.1317L9.09259 26.7512H22.4686V39.2267C19.2533 40.2162 17.2453 43.4081 17.7459 46.7351C18.2458 50.0614 21.1042 52.5215 24.4679 52.5215C27.8316 52.5215 30.6893 50.0614 31.1899 46.7351C31.6897 43.4081 29.6818 40.2162 26.4672 39.2267V26.7309H52.4585V39.2267C49.2432 40.2162 47.2353 43.4081 47.7359 46.7351C48.2357 50.0614 51.0941 52.5215 54.4579 52.5215C57.8216 52.5215 60.6792 50.0614 61.1798 46.7351C61.6797 43.4081 59.6717 40.2162 56.4572 39.2267V26.7309H69.8129L74.8909 85.1114C75.0549 86.7936 74.4949 88.4657 73.3515 89.7098ZM24.168 42.9458C24.3672 42.9723 24.5687 42.9723 24.7678 42.9458C26.2462 43.1051 27.3427 44.3937 27.2631 45.8784C27.1826 47.3638 25.9549 48.5275 24.4679 48.5275C22.9801 48.5275 21.7524 47.3638 21.6728 45.8784C21.5931 44.3937 22.6888 43.1051 24.168 42.9458ZM54.158 42.9458C54.3571 42.9723 54.5586 42.9723 54.7578 42.9458C56.2362 43.1051 57.3327 44.3937 57.253 45.8784C57.1726 47.3638 55.9449 48.5275 54.4579 48.5275C52.9701 48.5275 51.7424 47.3638 51.6627 45.8784C51.583 44.3937 52.6788 43.1051 54.158 42.9458Z" fill="black"/>
<path d="M40.728 81.224C39.2347 81.224 37.8907 80.968 36.696 80.456C35.5013 79.9227 34.5627 79.176 33.88 78.216C33.1973 77.256 32.856 76.136 32.856 74.856H36.76C36.8453 75.816 37.2187 76.6053 37.88 77.224C38.5627 77.8427 39.512 78.152 40.728 78.152C41.9867 78.152 42.968 77.8533 43.672 77.256C44.376 76.6373 44.728 75.848 44.728 74.888C44.728 74.1413 44.504 73.5333 44.056 73.064C43.6293 72.5947 43.0853 72.232 42.424 71.976C41.784 71.72 40.888 71.4427 39.736 71.144C38.2853 70.76 37.1013 70.376 36.184 69.992C35.288 69.5867 34.52 68.968 33.88 68.136C33.24 67.304 32.92 66.1947 32.92 64.808C32.92 63.528 33.24 62.408 33.88 61.448C34.52 60.488 35.416 59.752 36.568 59.24C37.72 58.728 39.0533 58.472 40.568 58.472C42.7227 58.472 44.4827 59.016 45.848 60.104C47.2347 61.1707 48.0027 62.6427 48.152 64.52H44.12C44.056 63.7093 43.672 63.016 42.968 62.44C42.264 61.864 41.336 61.576 40.184 61.576C39.1387 61.576 38.2853 61.8427 37.624 62.376C36.9627 62.9093 36.632 63.6773 36.632 64.68C36.632 65.3627 36.8347 65.928 37.24 66.376C37.6667 66.8027 38.2 67.144 38.84 67.4C39.48 67.656 40.3547 67.9333 41.464 68.232C42.936 68.6373 44.1307 69.0427 45.048 69.448C45.9867 69.8533 46.776 70.4827 47.416 71.336C48.0773 72.168 48.408 73.288 48.408 74.696C48.408 75.8267 48.0987 76.8933 47.48 77.896C46.8827 78.8987 45.9973 79.7093 44.824 80.328C43.672 80.9253 42.3067 81.224 40.728 81.224Z" fill="#29A867"/>
</svg>
